#!OML:ASF G:\JayActor3\Patient Classification 1\Patient 1\Session 6\male.ASF
:FULLY-SPECIFIED
:DEGREES
1125
root 5.44714 16.4561 0.281132 175.39 -44.8943 -175.265
lowerback -0.827196 -1.06301 2.9287
upperback 3.944 -1.65912 1.00487
thorax 4.4825 -0.783018 -0.682905
lowerneck -11.3484 0.206166 0.678482
upperneck 32.4086 -1.31426 -1.65303
head 12.6093 -1.3988 -1.08946
rclavicle 7.31155e-015 -5.31749e-015
rhumerus -40.177 24.7584 -95.8704
rradius 92.609
rwrist -54.7011
rhand -18.0552 -13.5103
rfingers 7.12502
rthumb 8.21709 -43.3305
lclavicle 7.31155e-015 -5.31749e-015
lhumerus -26.617 -1.05966 85.7176
lradius 27.375
lwrist 16.5499
lhand -15.7434 10.3224
lfingers 7.12502
lthumb 10.4477 40.0428
rfemur -11.4328 6.61505 22.3235
rtibia 34.6841
rfoot -21.8974 -9.32521
rtoes 0.518989
lfemur -2.93552 7.0241 -15.3466
ltibia 23.246
lfoot -18.5879 8.72206
ltoes -3.80189
1126
root 5.44492 16.4556 0.278704 175.374 -44.8926 -175.252
lowerback -0.848543 -1.06202 2.94396
upperback 3.95281 -1.65983 1.00747
thorax 4.50357 -0.782635 -0.689375
lowerneck -11.3549 0.204011 0.676817
upperneck 32.3918 -1.31613 -1.64533
head 12.6037 -1.39778 -1.08598
rclavicle 2.11434e-014 -1.03244e-014
rhumerus -40.1444 24.7563 -95.8617
rradius 92.5936
rwrist -54.6691
rhand -18.0668 -13.5259
rfingers 7.12502
rthumb 8.20586 -43.3466
lclavicle 2.11434e-014 -1.03244e-014
lhumerus -26.5956 -1.00493 85.7103
lradius 27.2974
lwrist 16.4981
lhand -15.7415 10.328
lfingers 7.12502
lthumb 10.4495 40.0484
rfemur -11.4115 6.62548 22.3384
rtibia 34.6838
rfoot -21.9052 -9.3412
rtoes 0.48389
lfemur -2.91715 7.03008 -15.3328
ltibia 23.2521
lfoot -18.5981 8.71668
ltoes -3.82709
1127
root 5.44266 16.4551 0.276025 175.368 -44.8861 -175.252
lowerback -0.875903 -1.05865 2.95077
upperback 3.96329 -1.65722 1.0075
thorax 4.53002 -0.780734 -0.693788
lowerneck -11.3602 0.201336 0.674192
upperneck 32.3709 -1.31838 -1.63623
head 12.5962 -1.39668 -1.08171
rclavicle -1.38085e-014 -1.002e-014
rhumerus -40.1141 24.7511 -95.8512
rradius 92.5811
rwrist -54.6419
rhand -18.0728 -13.5435
rfingers 7.12502
rthumb 8.20012 -43.3644
lclavicle -1.38085e-014 -1.002e-014
lhumerus -26.573 -0.946898 85.7011
lradius 27.2112
lwrist 16.4425
lhand -15.734 10.336
lfingers 7.12502
lthumb 10.4568 40.056
rfemur -11.392 6.64083 22.3446
rtibia 34.6862
rfoot -21.9161 -9.35225
rtoes 0.46278
lfemur -2.89551 7.0405 -15.3278
ltibia 23.253
lfoot -18.6065 8.71577
ltoes -3.86266
1128
root 5.44044 16.4547 0.273087 175.369 -44.875 -175.255
lowerback -0.9069 -1.05384 2.95231
upperback 3.97179 -1.65251 1.00816
thorax 4.55669 -0.777946 -0.69456
lowerneck -11.3648 0.198714 0.671467
upperneck 32.3491 -1.32035 -1.62739
head 12.5882 -1.39549 -1.07746
rclavicle 1.06987e-013 -1.7462e-014
rhumerus -40.0905 24.7465 -95.8407
rradius 92.5714
rwrist -54.6231
rhand -18.0687 -13.5664
rfingers 7.12502
rthumb 8.20406 -43.3872
lclavicle 1.06987e-013 -1.7462e-014
lhumerus -26.5543 -0.886378 85.6916
lradius 27.1173
lwrist 16.3859
lhand -15.723 10.3392
lfingers 7.12502
lthumb 10.4674 40.0586
rfemur -11.3772 6.66319 22.3493
rtibia 34.6911
rfoot -21.9328 -9.36008
rtoes 0.463755
lfemur -2.87399 7.05502 -15.3241
ltibia 23.249
lfoot -18.6139 8.71314
ltoes -3.88276
1129
root 5.43809 16.4544 0.270012 175.38 -44.8612 -175.273
lowerback -0.937943 -1.04845 2.94197
upperback 3.97904 -1.64636 1.00679
thorax 4.58233 -0.774803 -0.690698
lowerneck -11.3676 0.195657 0.667168
upperneck 32.327 -1.32249 -1.61919
head 12.5796 -1.39469 -1.07318
rclavicle 5.65007e-014 7.57867e-015
rhumerus -40.073 24.7424 -95.8301
rradius 92.5657
rwrist -54.6156
rhand -18.0453 -13.6045
rfingers 7.12502
rthumb 8.2266 -43.4244
lclavicle 5.65007e-014 7.57867e-015
lhumerus -26.5403 -0.824382 85.6824
lradius 27.0169
lwrist 16.3278
lhand -15.7126 10.3373
lfingers 7.12502
lthumb 10.4774 40.0562
rfemur -11.3639 6.68549 22.3419
rtibia 34.6992
rfoot -21.9526 -9.36091
rtoes 0.476293
lfemur -2.84776 7.06667 -15.3332
ltibia 23.2389
lfoot -18.6216 8.71738
ltoes -3.90374
1130
root 5.43574 16.4541 0.266936 175.394 -44.8449 -175.29
lowerback -0.961659 -1.0435 2.92911
upperback 3.97899 -1.64005 1.00769
thorax 4.5963 -0.771852 -0.682825
lowerneck -11.3674 0.193277 0.663256
upperneck 32.31 -1.3237 -1.61469
head 12.5726 -1.39433 -1.07042
rclavicle 9.22769e-014 -9.62863e-017
rhumerus -40.0688 24.7383 -95.822
rradius 92.564
rwrist -54.6179
rhand -18.0112 -13.6543
rfingers 7.12502
rthumb 8.25956 -43.4729
lclavicle 9.22769e-014 -9.62863e-017
lhumerus -26.5408 -0.755974 85.6736
lradius 26.9132
lwrist 16.2672
lhand -15.6991 10.3318
lfingers 7.12502
lthumb 10.4905 40.05
rfemur -11.3545 6.70721 22.3346
rtibia 34.7084
rfoot -21.9724 -9.35846
rtoes 0.491983
lfemur -2.82231 7.07433 -15.343
ltibia 23.2268
lfoot -18.6305 8.72584
ltoes -3.91019
1131
root 5.43333 16.4539 0.26397 175.408 -44.8297 -175.308
lowerback -0.982481 -1.04008 2.91657
upperback 3.97706 -1.6356 1.00897
thorax 4.60659 -0.769869 -0.674731
lowerneck -11.367 0.19161 0.660735
upperneck 32.2943 -1.32333 -1.61375
head 12.566 -1.39364 -1.06909
rclavicle 3.32427e-014 -2.09081e-014
rhumerus -40.0715 24.7369 -95.8147
rradius 92.5682
rwrist -54.6275
rhand -17.937 -13.696
rfingers 7.12502
rthumb 8.33115 -43.5117
lclavicle 3.32427e-014 -2.09081e-014
lhumerus -26.548 -0.683711 85.6641
lradius 26.8073
lwrist 16.2078
lhand -15.6888 10.3225
lfingers 7.12502
lthumb 10.5003 40.0402
rfemur -11.3475 6.72161 22.3256
rtibia 34.7193
rfoot -21.9888 -9.3531
rtoes 0.493293
lfemur -2.79662 7.0754 -15.3546
ltibia 23.2117
lfoot -18.6393 8.73882
ltoes -3.90748
1132
root 5.43094 16.4537 0.261185 175.418 -44.8143 -175.316
lowerback -0.988423 -1.03849 2.90928
upperback 3.96332 -1.63268 1.014
thorax 4.596 -0.768786 -0.665293
lowerneck -11.3603 0.191763 0.660233
upperneck 32.2863 -1.32096 -1.61795
head 12.5612 -1.39312 -1.07002
rclavicle 8.71925e-014 -7.60526e-015
rhumerus -40.0855 24.7332 -95.8144
rradius 92.5697
rwrist -54.6373
rhand -17.8756 -13.7258
rfingers 7.12502
rthumb 8.39035 -43.5391
lclavicle 8.71925e-014 -7.60526e-015
lhumerus -26.5773 -0.604432 85.6544
lradius 26.7028
lwrist 16.1458
lhand -15.6703 10.3216
lfingers 7.12502
lthumb 10.5182 40.0384
rfemur -11.345 6.73016 22.3228
rtibia 34.7306
rfoot -21.9989 -9.3454
rtoes 0.478262
lfemur -2.77486 7.0733 -15.36
ltibia 23.1965
lfoot -18.6479 8.75418
ltoes -3.90142
1133
root 5.42846 16.4536 0.258561 175.432 -44.7984 -175.334
lowerback -0.990521 -1.0367 2.89768
upperback 3.94982 -1.62906 1.01637
thorax 4.58352 -0.767474 -0.656066
lowerneck -11.3542 0.191771 0.661546
upperneck 32.2787 -1.31865 -1.62418
head 12.5567 -1.39268 -1.07207
rclavicle -2.05697e-014 -3.44301e-015
rhumerus -40.0987 24.7276 -95.8136
rradius 92.5726
rwrist -54.6465
rhand -17.8338 -13.7351
rfingers 7.12502
rthumb 8.43074 -43.5469
lclavicle -2.05697e-014 -3.44301e-015
lhumerus -26.6109 -0.524199 85.6435
lradius 26.5977
lwrist 16.0856
lhand -15.6522 10.3239
lfingers 7.12502
lthumb 10.5357 40.0399
rfemur -11.3415 6.73495 22.3111
rtibia 34.7427
rfoot -22.0055 -9.33373
rtoes 0.457629
lfemur -2.75037 7.0636 -15.3751
ltibia 23.1809
lfoot -18.6568 8.77864
ltoes -3.89771
